<mxfile host="Electron" modified="2023-04-13T01:18:17.267Z" agent="Mozilla/5.0 (Windows NT 10.0; Win64; x64) AppleWebKit/537.36 (KHTML, like Gecko) draw.io/21.1.2 Chrome/106.0.5249.199 Electron/21.4.3 Safari/537.36" etag="HwD8Xkgiq0uySqyQCCxU" version="21.1.2" type="device">
  <diagram id="DObsnUKBc4VVPj8XiVcQ" name="第 1 页">
    <mxGraphModel dx="1223" dy="631" grid="1" gridSize="10" guides="1" tooltips="1" connect="1" arrows="1" fold="1" page="1" pageScale="1" pageWidth="827" pageHeight="1169" math="0" shadow="0">
      <root>
        <mxCell id="0" />
        <mxCell id="1" parent="0" />
        <mxCell id="yupKMoCxjMrWVzPBAVR0-1" value="" style="strokeWidth=2;html=1;shape=mxgraph.flowchart.annotation_2;align=left;labelPosition=right;pointerEvents=1;" parent="1" vertex="1">
          <mxGeometry x="230" y="310" width="50" height="290" as="geometry" />
        </mxCell>
        <mxCell id="yupKMoCxjMrWVzPBAVR0-13" style="edgeStyle=orthogonalEdgeStyle;rounded=0;orthogonalLoop=1;jettySize=auto;html=1;" parent="1" source="yupKMoCxjMrWVzPBAVR0-6" target="yupKMoCxjMrWVzPBAVR0-1" edge="1">
          <mxGeometry relative="1" as="geometry" />
        </mxCell>
        <mxCell id="yupKMoCxjMrWVzPBAVR0-6" value="renderProps" style="text;html=1;align=center;verticalAlign=middle;resizable=0;points=[];autosize=1;strokeColor=#005700;fillColor=#008a00;fontColor=#ffffff;" parent="1" vertex="1">
          <mxGeometry x="100" y="440" width="90" height="30" as="geometry" />
        </mxCell>
        <mxCell id="yupKMoCxjMrWVzPBAVR0-10" style="edgeStyle=orthogonalEdgeStyle;rounded=0;orthogonalLoop=1;jettySize=auto;html=1;entryX=0.5;entryY=0;entryDx=0;entryDy=0;entryPerimeter=0;" parent="1" source="yupKMoCxjMrWVzPBAVR0-7" target="yupKMoCxjMrWVzPBAVR0-8" edge="1">
          <mxGeometry relative="1" as="geometry" />
        </mxCell>
        <mxCell id="yupKMoCxjMrWVzPBAVR0-11" value="说明" style="edgeLabel;html=1;align=center;verticalAlign=middle;resizable=0;points=[];" parent="yupKMoCxjMrWVzPBAVR0-10" vertex="1" connectable="0">
          <mxGeometry x="-0.2286" y="3" relative="1" as="geometry">
            <mxPoint as="offset" />
          </mxGeometry>
        </mxCell>
        <object label="component" id="yupKMoCxjMrWVzPBAVR0-7">
          <mxCell style="text;html=1;align=center;verticalAlign=middle;resizable=0;points=[];autosize=1;strokeColor=#005700;fillColor=#008a00;fontColor=#ffffff;" parent="1" vertex="1">
            <mxGeometry x="300" y="355" width="80" height="30" as="geometry" />
          </mxCell>
        </object>
        <mxCell id="yupKMoCxjMrWVzPBAVR0-8" value="&lt;div style=&quot;text-align: justify;&quot;&gt;&lt;span style=&quot;background-color: initial;&quot;&gt;渲染日、周、月的日历视图组件&lt;/span&gt;&lt;/div&gt;" style="shape=note;whiteSpace=wrap;html=1;backgroundOutline=1;darkOpacity=0.05;fillColor=#f8cecc;strokeColor=#b85450;fillStyle=auto;direction=west;gradientDirection=north;shadow=1;size=20;pointerEvents=1;strokeWidth=2;perimeterSpacing=3;sketch=0;spacingTop=1;spacing=30;" parent="1" vertex="1">
          <mxGeometry x="225" y="190" width="230" height="40" as="geometry" />
        </mxCell>
        <mxCell id="yupKMoCxjMrWVzPBAVR0-18" value="" style="shape=curlyBracket;whiteSpace=wrap;html=1;rounded=1;sketch=0;fillStyle=auto;strokeWidth=2;" parent="1" vertex="1">
          <mxGeometry x="390" y="270" width="20" height="200" as="geometry" />
        </mxCell>
        <mxCell id="yupKMoCxjMrWVzPBAVR0-19" value="VCalendarMonthly" style="text;html=1;align=center;verticalAlign=middle;resizable=0;points=[];autosize=1;strokeColor=none;fillColor=none;" parent="1" vertex="1">
          <mxGeometry x="414" y="265" width="120" height="30" as="geometry" />
        </mxCell>
        <mxCell id="yupKMoCxjMrWVzPBAVR0-20" value="VCalendarDaily" style="text;html=1;align=center;verticalAlign=middle;resizable=0;points=[];autosize=1;strokeColor=none;fillColor=none;" parent="1" vertex="1">
          <mxGeometry x="414" y="440" width="110" height="30" as="geometry" />
        </mxCell>
        <mxCell id="yupKMoCxjMrWVzPBAVR0-21" value="" style="shape=curlyBracket;whiteSpace=wrap;html=1;rounded=1;sketch=0;fillStyle=auto;strokeWidth=2;" parent="1" vertex="1">
          <mxGeometry x="524" y="395" width="20" height="120" as="geometry" />
        </mxCell>
        <mxCell id="yupKMoCxjMrWVzPBAVR0-33" value="" style="edgeStyle=orthogonalEdgeStyle;rounded=0;orthogonalLoop=1;jettySize=auto;html=1;fontFamily=Helvetica;" parent="1" source="yupKMoCxjMrWVzPBAVR0-22" target="yupKMoCxjMrWVzPBAVR0-32" edge="1">
          <mxGeometry relative="1" as="geometry" />
        </mxCell>
        <mxCell id="yupKMoCxjMrWVzPBAVR0-22" value="maxDays = 1（日视图）" style="text;html=1;align=center;verticalAlign=middle;resizable=0;points=[];autosize=1;strokeColor=#005700;fillColor=#008a00;fontColor=#ffffff;" parent="1" vertex="1">
          <mxGeometry x="550" y="385" width="150" height="30" as="geometry" />
        </mxCell>
        <mxCell id="yupKMoCxjMrWVzPBAVR0-23" value="maxDays = 7（周视图）" style="text;html=1;align=center;verticalAlign=middle;resizable=0;points=[];autosize=1;strokeColor=#005700;fillColor=#008a00;fontColor=#ffffff;" parent="1" vertex="1">
          <mxGeometry x="550" y="485" width="150" height="30" as="geometry" />
        </mxCell>
        <mxCell id="yupKMoCxjMrWVzPBAVR0-29" value="" style="endArrow=block;startArrow=block;endFill=1;startFill=1;html=1;rounded=0;entryX=0.467;entryY=1;entryDx=0;entryDy=0;entryPerimeter=0;exitX=0.467;exitY=0;exitDx=0;exitDy=0;exitPerimeter=0;fontFamily=Helvetica;" parent="1" source="yupKMoCxjMrWVzPBAVR0-23" target="yupKMoCxjMrWVzPBAVR0-22" edge="1">
          <mxGeometry width="160" relative="1" as="geometry">
            <mxPoint x="560" y="550" as="sourcePoint" />
            <mxPoint x="615" y="430" as="targetPoint" />
            <Array as="points">
              <mxPoint x="620" y="450" />
            </Array>
          </mxGeometry>
        </mxCell>
        <mxCell id="yupKMoCxjMrWVzPBAVR0-30" value="可设置maxDays" style="text;html=1;align=center;verticalAlign=middle;resizable=0;points=[];autosize=1;fontFamily=Helvetica;fillColor=#6a00ff;fontColor=#ffffff;strokeColor=#3700CC;" parent="1" vertex="1">
          <mxGeometry x="630" y="440" width="110" height="30" as="geometry" />
        </mxCell>
        <mxCell id="yupKMoCxjMrWVzPBAVR0-35" value="" style="edgeStyle=orthogonalEdgeStyle;rounded=0;orthogonalLoop=1;jettySize=auto;html=1;fontFamily=Helvetica;" parent="1" source="yupKMoCxjMrWVzPBAVR0-32" target="yupKMoCxjMrWVzPBAVR0-34" edge="1">
          <mxGeometry relative="1" as="geometry" />
        </mxCell>
        <mxCell id="yupKMoCxjMrWVzPBAVR0-32" value="genBody" style="rounded=1;whiteSpace=wrap;html=1;sketch=0;fillStyle=auto;strokeWidth=2;fontFamily=Helvetica;" parent="1" vertex="1">
          <mxGeometry x="740" y="390" width="90" height="20" as="geometry" />
        </mxCell>
        <mxCell id="yupKMoCxjMrWVzPBAVR0-37" value="" style="edgeStyle=orthogonalEdgeStyle;rounded=0;orthogonalLoop=1;jettySize=auto;html=1;fontFamily=Helvetica;" parent="1" source="yupKMoCxjMrWVzPBAVR0-34" target="yupKMoCxjMrWVzPBAVR0-36" edge="1">
          <mxGeometry relative="1" as="geometry" />
        </mxCell>
        <mxCell id="yupKMoCxjMrWVzPBAVR0-34" value="genScrollArea" style="rounded=1;whiteSpace=wrap;html=1;sketch=0;fillStyle=auto;strokeWidth=2;" parent="1" vertex="1">
          <mxGeometry x="870" y="390" width="100" height="20" as="geometry" />
        </mxCell>
        <mxCell id="yupKMoCxjMrWVzPBAVR0-41" value="" style="edgeStyle=orthogonalEdgeStyle;rounded=0;orthogonalLoop=1;jettySize=auto;html=1;fontFamily=Helvetica;" parent="1" source="yupKMoCxjMrWVzPBAVR0-36" target="yupKMoCxjMrWVzPBAVR0-40" edge="1">
          <mxGeometry relative="1" as="geometry" />
        </mxCell>
        <mxCell id="yupKMoCxjMrWVzPBAVR0-36" value="genPane" style="whiteSpace=wrap;html=1;rounded=1;sketch=0;fillStyle=auto;strokeWidth=2;" parent="1" vertex="1">
          <mxGeometry x="1000" y="390" width="110" height="20" as="geometry" />
        </mxCell>
        <mxCell id="yupKMoCxjMrWVzPBAVR0-43" value="" style="edgeStyle=orthogonalEdgeStyle;rounded=0;orthogonalLoop=1;jettySize=auto;html=1;fontFamily=Helvetica;entryX=0;entryY=0.5;entryDx=0;entryDy=0;fillColor=#0050ef;strokeColor=#001DBC;" parent="1" source="yupKMoCxjMrWVzPBAVR0-40" target="yupKMoCxjMrWVzPBAVR0-42" edge="1">
          <mxGeometry relative="1" as="geometry" />
        </mxCell>
        <mxCell id="yupKMoCxjMrWVzPBAVR0-45" value="" style="edgeStyle=orthogonalEdgeStyle;rounded=0;orthogonalLoop=1;jettySize=auto;html=1;fontFamily=Helvetica;entryX=0;entryY=0.5;entryDx=0;entryDy=0;fillColor=#6a00ff;strokeColor=#3700CC;" parent="1" source="yupKMoCxjMrWVzPBAVR0-40" target="yupKMoCxjMrWVzPBAVR0-44" edge="1">
          <mxGeometry relative="1" as="geometry">
            <mxPoint x="1230" y="360" as="targetPoint" />
          </mxGeometry>
        </mxCell>
        <mxCell id="yupKMoCxjMrWVzPBAVR0-40" value="genDayContainer" style="whiteSpace=wrap;html=1;rounded=1;sketch=0;fillStyle=auto;strokeWidth=2;" parent="1" vertex="1">
          <mxGeometry x="1140" y="390" width="110" height="20" as="geometry" />
        </mxCell>
        <mxCell id="yupKMoCxjMrWVzPBAVR0-48" value="" style="edgeStyle=orthogonalEdgeStyle;rounded=0;orthogonalLoop=1;jettySize=auto;html=1;fontFamily=Helvetica;" parent="1" source="yupKMoCxjMrWVzPBAVR0-42" target="yupKMoCxjMrWVzPBAVR0-47" edge="1">
          <mxGeometry relative="1" as="geometry" />
        </mxCell>
        <mxCell id="yupKMoCxjMrWVzPBAVR0-42" value="genDays" style="whiteSpace=wrap;html=1;rounded=1;sketch=0;fillStyle=auto;strokeWidth=2;" parent="1" vertex="1">
          <mxGeometry x="1250" y="420" width="110" height="20" as="geometry" />
        </mxCell>
        <mxCell id="yupKMoCxjMrWVzPBAVR0-44" value="genBodyIntervals" style="whiteSpace=wrap;html=1;rounded=1;sketch=0;fillStyle=auto;strokeWidth=2;" parent="1" vertex="1">
          <mxGeometry x="1250" y="350" width="110" height="20" as="geometry" />
        </mxCell>
        <mxCell id="yupKMoCxjMrWVzPBAVR0-50" value="" style="edgeStyle=orthogonalEdgeStyle;rounded=0;orthogonalLoop=1;jettySize=auto;html=1;fontFamily=Helvetica;" parent="1" source="yupKMoCxjMrWVzPBAVR0-47" target="yupKMoCxjMrWVzPBAVR0-49" edge="1">
          <mxGeometry relative="1" as="geometry" />
        </mxCell>
        <mxCell id="yupKMoCxjMrWVzPBAVR0-47" value="genDay" style="whiteSpace=wrap;html=1;rounded=1;sketch=0;fillStyle=auto;strokeWidth=2;" parent="1" vertex="1">
          <mxGeometry x="1390" y="420" width="110" height="20" as="geometry" />
        </mxCell>
        <mxCell id="yupKMoCxjMrWVzPBAVR0-52" value="" style="edgeStyle=orthogonalEdgeStyle;rounded=0;orthogonalLoop=1;jettySize=auto;html=1;fontFamily=Helvetica;exitX=0.818;exitY=1;exitDx=0;exitDy=0;exitPerimeter=0;" parent="1" source="yupKMoCxjMrWVzPBAVR0-49" target="yupKMoCxjMrWVzPBAVR0-51" edge="1">
          <mxGeometry relative="1" as="geometry" />
        </mxCell>
        <mxCell id="yupKMoCxjMrWVzPBAVR0-56" style="edgeStyle=orthogonalEdgeStyle;rounded=0;orthogonalLoop=1;jettySize=auto;html=1;exitX=0.25;exitY=1;exitDx=0;exitDy=0;entryX=0;entryY=0.5;entryDx=0;entryDy=0;fontFamily=Helvetica;" parent="1" source="yupKMoCxjMrWVzPBAVR0-49" target="yupKMoCxjMrWVzPBAVR0-54" edge="1">
          <mxGeometry relative="1" as="geometry" />
        </mxCell>
        <mxCell id="yupKMoCxjMrWVzPBAVR0-49" value="处理后缀事件" style="whiteSpace=wrap;html=1;rounded=1;sketch=0;fillStyle=auto;strokeWidth=2;" parent="1" vertex="1">
          <mxGeometry x="1390" y="485" width="110" height="20" as="geometry" />
        </mxCell>
        <mxCell id="yupKMoCxjMrWVzPBAVR0-74" style="edgeStyle=orthogonalEdgeStyle;rounded=0;orthogonalLoop=1;jettySize=auto;html=1;exitX=0.75;exitY=0;exitDx=0;exitDy=0;entryX=0.75;entryY=1;entryDx=0;entryDy=0;fontFamily=Helvetica;" parent="1" source="yupKMoCxjMrWVzPBAVR0-51" target="yupKMoCxjMrWVzPBAVR0-59" edge="1">
          <mxGeometry relative="1" as="geometry" />
        </mxCell>
        <mxCell id="yupKMoCxjMrWVzPBAVR0-76" value="传入所有的绑定事件($listeners)" style="edgeLabel;html=1;align=center;verticalAlign=middle;resizable=0;points=[];fontFamily=Helvetica;" parent="yupKMoCxjMrWVzPBAVR0-74" vertex="1" connectable="0">
          <mxGeometry x="0.275" y="-3" relative="1" as="geometry">
            <mxPoint x="-32" y="-3" as="offset" />
          </mxGeometry>
        </mxCell>
        <mxCell id="yupKMoCxjMrWVzPBAVR0-51" value="time &lt;br&gt;后缀" style="whiteSpace=wrap;html=1;rounded=1;sketch=0;fillStyle=auto;strokeWidth=2;direction=south;align=center;labelPosition=center;verticalLabelPosition=middle;verticalAlign=middle;" parent="1" vertex="1">
          <mxGeometry x="1460" y="530" width="40" height="40" as="geometry" />
        </mxCell>
        <mxCell id="yupKMoCxjMrWVzPBAVR0-54" value="event &lt;br&gt;后缀" style="whiteSpace=wrap;html=1;rounded=1;sketch=0;fillStyle=auto;strokeWidth=2;direction=south;align=center;labelPosition=center;verticalLabelPosition=middle;verticalAlign=middle;" parent="1" vertex="1">
          <mxGeometry x="1400" y="530" width="40" height="40" as="geometry" />
        </mxCell>
        <mxCell id="yupKMoCxjMrWVzPBAVR0-70" style="edgeStyle=orthogonalEdgeStyle;rounded=0;orthogonalLoop=1;jettySize=auto;html=1;exitX=0.75;exitY=0;exitDx=0;exitDy=0;entryX=0.75;entryY=1;entryDx=0;entryDy=0;fontFamily=Helvetica;" parent="1" source="yupKMoCxjMrWVzPBAVR0-59" target="yupKMoCxjMrWVzPBAVR0-62" edge="1">
          <mxGeometry relative="1" as="geometry" />
        </mxCell>
        <mxCell id="yupKMoCxjMrWVzPBAVR0-72" value="传递带有后缀的事件" style="edgeLabel;html=1;align=center;verticalAlign=middle;resizable=0;points=[];fontFamily=Helvetica;fontStyle=1" parent="yupKMoCxjMrWVzPBAVR0-70" vertex="1" connectable="0">
          <mxGeometry x="-0.1889" y="-2" relative="1" as="geometry">
            <mxPoint x="9" y="-2" as="offset" />
          </mxGeometry>
        </mxCell>
        <mxCell id="yupKMoCxjMrWVzPBAVR0-77" style="edgeStyle=orthogonalEdgeStyle;rounded=0;orthogonalLoop=1;jettySize=auto;html=1;exitX=0.25;exitY=1;exitDx=0;exitDy=0;entryX=0.25;entryY=0;entryDx=0;entryDy=0;fontFamily=Helvetica;" parent="1" source="yupKMoCxjMrWVzPBAVR0-59" target="yupKMoCxjMrWVzPBAVR0-51" edge="1">
          <mxGeometry relative="1" as="geometry" />
        </mxCell>
        <mxCell id="DaawhA9ZFfXLbtmmZpCl-18" style="edgeStyle=orthogonalEdgeStyle;rounded=0;orthogonalLoop=1;jettySize=auto;html=1;exitX=1;exitY=0;exitDx=0;exitDy=0;entryX=1;entryY=0.75;entryDx=0;entryDy=0;strokeColor=#DDA15E;fontColor=#FEFAE0;fillColor=#BC6C25;" parent="1" source="yupKMoCxjMrWVzPBAVR0-59" target="yupKMoCxjMrWVzPBAVR0-62" edge="1">
          <mxGeometry relative="1" as="geometry">
            <Array as="points">
              <mxPoint x="1880" y="590" />
              <mxPoint x="2128" y="590" />
            </Array>
          </mxGeometry>
        </mxCell>
        <mxCell id="DaawhA9ZFfXLbtmmZpCl-20" value="传递一个事件处理函数" style="edgeLabel;html=1;align=center;verticalAlign=middle;resizable=0;points=[];fontColor=#000000;" parent="DaawhA9ZFfXLbtmmZpCl-18" vertex="1" connectable="0">
          <mxGeometry x="-0.2348" relative="1" as="geometry">
            <mxPoint as="offset" />
          </mxGeometry>
        </mxCell>
        <mxCell id="yupKMoCxjMrWVzPBAVR0-59" value="getDefaultMouseEventHandlers" style="whiteSpace=wrap;html=1;rounded=1;sketch=0;fillStyle=auto;strokeWidth=2;direction=south;align=center;labelPosition=center;verticalLabelPosition=middle;verticalAlign=middle;" parent="1" vertex="1">
          <mxGeometry x="1690" y="530" width="190" height="40" as="geometry" />
        </mxCell>
        <mxCell id="yupKMoCxjMrWVzPBAVR0-71" style="edgeStyle=orthogonalEdgeStyle;rounded=0;orthogonalLoop=1;jettySize=auto;html=1;exitX=0.25;exitY=1;exitDx=0;exitDy=0;entryX=0.25;entryY=0;entryDx=0;entryDy=0;fontFamily=Helvetica;fontStyle=1" parent="1" source="yupKMoCxjMrWVzPBAVR0-62" target="yupKMoCxjMrWVzPBAVR0-59" edge="1">
          <mxGeometry relative="1" as="geometry">
            <Array as="points">
              <mxPoint x="2030" y="540" />
              <mxPoint x="2030" y="540" />
            </Array>
          </mxGeometry>
        </mxCell>
        <mxCell id="yupKMoCxjMrWVzPBAVR0-73" value="&lt;b&gt;返回一个新的handler&lt;/b&gt;" style="edgeLabel;html=1;align=center;verticalAlign=middle;resizable=0;points=[];fontFamily=Helvetica;shadow=1;" parent="yupKMoCxjMrWVzPBAVR0-71" vertex="1" connectable="0">
          <mxGeometry x="0.2111" relative="1" as="geometry">
            <mxPoint x="21" as="offset" />
          </mxGeometry>
        </mxCell>
        <mxCell id="yupKMoCxjMrWVzPBAVR0-62" value="getMouseEventHandlers" style="whiteSpace=wrap;html=1;rounded=1;sketch=0;fillStyle=auto;strokeWidth=2;direction=south;align=center;labelPosition=center;verticalLabelPosition=middle;verticalAlign=middle;" parent="1" vertex="1">
          <mxGeometry x="2080" y="530" width="190" height="40" as="geometry" />
        </mxCell>
        <mxCell id="DaawhA9ZFfXLbtmmZpCl-16" style="edgeStyle=orthogonalEdgeStyle;rounded=0;orthogonalLoop=1;jettySize=auto;html=1;verticalAlign=top;entryX=0.5;entryY=1;entryDx=0;entryDy=0;align=center;" parent="1" target="DaawhA9ZFfXLbtmmZpCl-15" edge="1">
          <mxGeometry relative="1" as="geometry">
            <mxPoint x="1973" y="540" as="sourcePoint" />
          </mxGeometry>
        </mxCell>
        <mxCell id="DaawhA9ZFfXLbtmmZpCl-17" value="这个新的handler会通过emit出发上级绑定的事件，并且会将鼠标区块的对象和原始的时间传递出去" style="edgeLabel;html=1;align=center;verticalAlign=bottom;resizable=0;points=[];spacingTop=-5;spacing=7;labelBackgroundColor=#3333FF;fontColor=#FFFFFF;spacingRight=1;spacingBottom=0;rotation=0;fontFamily=Helvetica;labelBorderColor=#FFB570;imageWidth=32;" parent="DaawhA9ZFfXLbtmmZpCl-16" vertex="1" connectable="0">
          <mxGeometry relative="1" as="geometry">
            <mxPoint x="7" y="-5" as="offset" />
          </mxGeometry>
        </mxCell>
        <mxCell id="DaawhA9ZFfXLbtmmZpCl-15" value="" style="shape=image;verticalLabelPosition=bottom;labelBackgroundColor=default;verticalAlign=top;aspect=fixed;imageAspect=0;image=data:image/png,iVBORw0KGgoAAAANSUhEUgAAArIAAAEhCAYAAACDY0PwAAAgAElEQVR4nOzdfVBUZ573/7e/2a1K7sy9khu1eUjCtA8zGx3YgmASyb2pxCzDwDigISaaqTiEiWCMlaS2dAnRHcLEiERrVy01gLv8/JlaMVGCEgfGMHFTuTeYBOy+F6PZxAeGKNCtdgk7YyZVU1P9++Ocph/ohqZp1I6fV5Vlc66Hc/Xp082Xb1/nXJPcbrcbEREREZEY8/9c7wGIiIiIiERCgayIiIiIxCQFsiIiIiISkxTIioiIiEhMUiArIiIiIjEpKoFs1+ZKqotbcEa5buSO8dmkSXz2MXz16iQ+efXYsLJPJk3ik0mFfHHBp+jj18ztgW0cfPH4pKGyzz4O0ebxvbjCHOFXrxptOhscfttdDYUhxjCCC3vpDDYG37EFjvvCXjonFfLFBeO5BY5DRERE5Eb3Lc7IPspf3jF8q6thMxxzc5/bzcy9MPD3ZuB3YS+d8yDRbZQlkuUN7j7+V36/qJ/73G7uO7aeq/Ne4ysAHHzxT542/cTxM7pHDQiNwPG/s90k/iqw7Bj9TYXMdLu5z93Obb/M8g8+gzrGZ3c28j/Pm89pUSNnPAHw/WuNMbvd3Hf+3/hmaNweGdwa5BiJiIiIxIK/iLhl5x6qc7q9PxcY/zkbt7K7ZMC7vTyfstXpAfU72B3fAcSRceIFspMC+7OS61pG2lAndjZMf5wzr7dT/9jUMQ3ztpmP8h2sQz/HL20k3vP4bwvpbjIeu/5PI+zdwV0AOPjjCfjziaO4lj5J/P1rybzfbHT/fG7jqPlDAj94e+3Q4ymLHuX3o44ogR+8bdy696u2wLJ5/PDteUOP/+pX8N+jdffxUa7+ajX3mQHp1TPvwC8z+Oof55nPxXShmz8vtnJbkPHcmgp/siaMOnIRERGRG0lkgWxfCzU53aQcqWBJpjFdoPWUUWQpfIGyQp96qc3seyidJZnLKHN56s6lqD4Pi19/V8g4UUF2klmnuAWLb50xmccP3Y3GQ5/ANZDr/zTy59TVxANfnXmHW7IbMaYeZMHef+M7TUEafXyUq4utJA4rcHC56R1u+fvGiEY83DH++5eP8pdPj1zL1W3jOzN/gZHpTeT3i/6N2/D+geFqKOTMk+8AjxJ3fq33WNzxJJmepTD+UWtiiIiISOyJKJB1HjvNIFayMoOV2tkX30yPz5a4sPobwJZaic2zscC3RjovnzsdyVBD+/g1zjyZQaJ7ns/GY3w2aTN/ed7ND9hLZ2Age2EvnfNs/gGh6atXExlIbee++337yuKq+dN39vaTuTTcrKeDLx7P4pu9/fxw6Kv/kfrr5ovHs/jT37vJvP8Ynz3pDWTjlzYSv9Qc+52FfHG+kR9oOoGIiIh8C0Q+tSAoB23FzfQUmBnXvhZqUjvCbBs4nWACffwan8yzEXe+cejr99tmPkr/vM3EeQK9j7v5s8+UBCMQ/Bm3HHMPCwS/enUS/Sf+jZlv+wbF8/hhRKv/GpnVgdR27vMLfIP3F2/N4My8LP50zM0P7wcudPMN8FeBFe+Yz/9c/DP+dAFQICsiIiLfAhFd7GVJuR24grMP6GuhvSqgwuxELEDX3g4Gw+6vm/bGUBdK2dkwfRbFBy5FMlx/Q1lV/8xk/N8W8p3FhUy5A4yLuNbxnUXzzczrMT4zg9gf3u/fnauh0Axinww5hWEshjK7/zhv9Mpgztldz1+Z4/rq//0Zf/7VfP/5sQAXjvL7/d56IiIiIrFuktsdUdrQmMdaBRBHSjn0nJplZGF9LtqaXDeXuJIOMOfSAua8WU+A673YK+RFYsB4LvbyZ2Y79/tvvc0MUL3zSYFfeYPJr16dRP8v/dt8Z28/mX97lM47f8af/UrWk+heOzyQ9DG8v0eNwPrCa3wyb51/5cVhBMkf+7Tzqe/3fMIYl4iIiEgsiTiQFRERERG5nr7F95EVERERkW8zBbIiIiIiEpMUyIqIiIhITFIgKyIiIiIxSYGsiIiIiMQkBbIiIiIiEpMUyIqIiIhITIpKINu1uZLq4hac0egsbE6aShtITjb/lbZz8ZruX0RERESupxjOyFpYVLuU3l7jX/PdPaw9eG1DaRERERG5fv4i4pY+S9ECUGD8F3Kp2c49VOdcGVqSFhy0Fddim+1dita2cRaFX27g0/rFjG0hWidffQ6pD1oifjoiIiIiElsiC2T7WqjJ6SblSAVLMo2pBa2njCJL4QuUFfrUS21m30PpLMlMJYVmzh5zkF2YAJ3vYTsUR8b69HEM/yTbkruoBliTRm/GOLoSERERkZgSUSDrPHaaQaxkZQYrtbMvvpkeny1xAKTzcN2H7P61DWdhHs4PuqFgLmlJ3noZL52mm7GYw/O9c3geOL6lgeQt0PvinLE+HRERERGJQVGeI+ugrbiZnoK5FLkqKDsxl8k+pZZ5s5h86DRdfXZOVUHKyjyiNRngngenwOeDuuBLRERE5CYRUSBrSbkduIKzD+hrob0qoMLsRCxA194OBn23J+WRVT6ALdUIdh8OyOjaNs7CWryfSxGM6fiHl8nLncG0CNqKiIiISOyJLCObuYzc8gFsqZVUp54mrjzOLEgge6UVqpqpjq+k3TqXlICmaQ9ZAZj8k4xxZmNPsi3Ze/utmu/NZ9dCXewlIiIicrOY5Ha73ddyh8ZdDW4n17WMtGu5YxERERH5Von89ltjNXS7LquCWBEREREZt2uekRURERERiYYYXtlLRERERG5mCmRFREREJCYpkBURERGRmKRAVkRERERikgJZEREREYlJ47v9Vl8LName1bviyDjxAtlJIzfp2lxJ66m5FNVHb3naqOpvZ3lmDy0ATKG5N5t7QlZ20lR6lFWHw6krIiIiItE0rkC2a28HgwU3cFAageNv9ZD67lJ2ZYRT28Ki2qUs4iTbkvsmemgiIiIi4mMcgawD5ylgdqJfEOuXcTUztnFHKliCZ0EEgA52x3cwlMXt20N1zhUzo+ugrbgW2+x8ylanD60EllLeTU8V+GV+R8wI29kw/XHOvN5O/WNTw3xOTr76/BbufCJgs1+WFvJ2hLMcrm+2FliTRu+Lc4KWlb27lOfDCpxFRERExCOiQNYILgeMHw41U13VDOVG4BlS5jLKXCGmFoyazOxmwFpKmQsjyN1rJ3s17DOD5BWZ5phS92CJcNWw41sayN9k/nC4gVX4BKyJWezqzfI8e5pK22m6bxGLEkfo0NbFqrvT6K2dM6zo+JajnC9dSm8twEm2JTfR1DlKfyIiIiLiJ6JA1lL4AmWF/pnTiWUlqzABgOz6CrIBOvfQA5BTSfVQvdt92qTz8rnTYe/hnheX0vuiEaTySmBQeZJtyV0++7mF7a+M0mHibeRt6iL580HstVlM8+nro01QvanBv7+wRyoiIiIiMN6Lva678C4wG6/jW7qoHpoaYAa7o/FkcfvbWZ7cQMuCFJ+AVheGiYiIiIzXhN5+q2uvZ/7qGHS+h+1QGPWSpjCZAWx77SEq2NkwfRbFBy6NdQRB5X1vivHA1uWd9xqOxCx29aZRdvgq5wGYwwNrLlNz0BmVcYmIiIjcrKKekU17ci7tqebFXOVWUugOXe7JqGb+iIyCWmypldiwklKOMW1gJEl5rDhymeocc44uwATdQeGeJ1Ig8yjJzwFrUti+4A9mScCUg+QGMDOvHGwi/blvhvrI2zGf5z39vZhGarLZHwy18U4/EBEREZHRTHK73e7rPQgRERERkbHSyl4iIiIiEpMUyIqIiIhITFIgKyIiIiIxSYGsiIiIiMQkBbIiIiIiEpMUyIqIiIhITFIgKyIiIiIxKbJAtq+FmvhK9nVGZxBdmyupjvf5tznUal0TrL+d5aXtXLw+excRERGRMYj6yl4RG1qVy86++GaqgbLV6dd7VCIiIiJygxpfIPvBHqpzjCVoU45UsCQTnI1b2V0y4K1Tnu8TkBpBak/QMo90Hq77kN0lJ+hanY4lRH9dmytpPeWzJG1fCzWpHcSZ4wA7G6Y/zpnX26l/bOooT8RJU+lRVh02fmpJNkaYt2M+uxZawNZG8oe3sf3zHrPOFJp7s7mHk2xL7uOB3mzuAbNeEr0vzgHg+JYG8jfh35eIiIiIRMW4AtmeU1Moci3DubmS1p0tOOvzsBS+QFmhWaGvhZrUZvY9lM6STOja3ExPgU/wGYaQ/T1kpbXqNF19kJ0EXXs7GCyYy6LMSJ6JhUW1S1nU387yV+C12iymBVbZ5ITOpfTWwsWDTaw96GTXwtA9XjzYRM335tPba8ETKG+7aynPZ0QyPhEREREJNK5ANmWlEZA6/bYGZF2BOPN/izUOqjrYHd/B5LpSVhQmhLGXEP1l/oiMglrOHnOQXdjPqSqYXJfhEyCn8/K50xE9r6DWfJ9FicbDaQsXsQuAyyEqO/mo9RtaDh8l+Tnv1rLS6A1HRERE5GYX5bsWOGgrNrOurgrKTsxlsk+ppfAFylylZBTAYEkt1fF76ArSi7N7AAqmYBmxvwTSfhLH4K9tODtP0IOVrLAC42vlFrZ3LqW31/tP2VgRERGR6JmY22/NTsSC+XX/sMIEsusrKKqLA67g7Aso7muhvQom/8QnuxqiP0vhg6Qc6mB3TjeT635Eml9HdjZMn0XxgUtjG/vhq5wfU4M/8FU/wEm2/dSTobXwQC6seuvk2PYtIiIiImGL8l0LEsheacWW00x1VTOT6+aSQsdQadfmSlqrvLUn15Ua81sBDhlTDjzbPdMORuoP0pld3kxPVRwz5kUhG5uYxYo1DeQnNwDhXKA1hyU7viQ9s4FV3ML2HVPgd0bJtIVZbC89SnKyJ+fsuUBMRERERKJhktvtdl/vQUTOQVtxLbbZwe5+ICIiIiLfZjfOfWTHaCi7G/QWXiIiIiLybRfjGVkRERERuVlNzMVeIiIiIiITTIGsiIiIiMQkBbIiIiIiEpMUyIqIiIhITIqRQNbOvvhKqotbApbDFREREZGbVWS33+proSa1g7gjFSzJHP8gAhdKMFjJdS0LWK3r+rl4sIm1ZI2yQIKIiIiIXCs3xH1k01ZXkLbaDGhPzaWoPg//cDGdJS7dK1ZEREREvMYXyH6wh+qcbgBSzOyss3Eru0sGvHX8Fiywsy++mZ6gZcH59VfgDXK7NlfSfiqOwUMDUG4lpaqbHp8srl+WN3A/jv0UZ73MzLdP8/JoGeX+dpZn9tACwFGSnwO4he2di1iU6KSptB1yv8uq5y4D3mVt/TO4Zr1XFrEoEfPno6w6bOyi7N2lPJ8xyjhERERExM+4AtmeU1Moci3DubmS1p0tOOvzsBS+QFmhWaGvhZrUZvY9lM6STOja3ExPQbCMa2hGf+ZStAFlg8yi6MhldudcIf5EPqR+iLMPnMe2GpldVx4WM3iusSayojBh7E8yMYtdvVkjTC34hlW/+z69vdnASbYld3F8YTZ3jtDl8S1HOV+6lN5azDZNNHV6glwRERERCce4AtmUlUZA6n8BVkDWFYgz/7dY46Cqg93xHUyuK40ssPQ1OxELl4HbsSSBiwFcfQ66fj0Ah4z9eEz2bZewmPpzi8e37yG3sP2JOebjOTzfazy+GLL+ST7aBNWbGqj27SNKoxERERG5WUR5jqyDtmKfrKt5UZiHX3a1pJbqkgm8oCuMaQvXzxSae7O553oPQ0RERCSGTcztt2YnGvNY93YwOKwwgez6Corq4oArOPuivfMELLOBqg9pC9W3Yz/F02exoXNsPbf87nJE9S8ebB+aDwtzeGDNZWoO6kZiIiIiIuMR5YxsAtkrrdhymqmuamZy3VxS8GZkA2+zNbmulOykkXv0b+OdlpA1Qpu01aU4T9ViS60cmlebMs5bhU1b+H3KkrtI3tSF92KvMOuvSWH7Am/ges+LaaQmey4cAxakYK/NYlrkwxMRERG56Uxyu93u6z0IEREREZGxipGVvURERERE/CmQFREREZGYpEBWRERERGKSAlkRERERiUkKZEVEREQkJimQFREREZGYpEBWRERERGJSZIFsXws18ZXsG+PKWNfS8S0NJCcb/7bZRq8vIiIiIrHlW5mRvXiwiXzS6O1dSm9vGvy0iab+6z0qEREREYmm8QWyH+yhOr6Sar/srIO24sqh7dWb7f7bPT937qE6fittfXgzvJu9/dU0Onx2ZGfD9FkUH7gUxqCcfNQK25+YY/zYP8gJvqHlE+fIzUREREQkpowrkO05NYUiVwW55dCzswUn0LW5FhtzKXJVUHZiLpOrmgOC0tH7K6qLY7DkPboiGtVlzh/+LnclArY2kjOvkrfjloh6EhEREZEb17gC2ZSVeVj8ttg5VQWTf5JhbE/KYEYBDHaH972+pz9L4QuUuZaRNlSSzsvnTlP/2NTwB2drI7n2Nuy92TwQfisRERERiRHfwjmyU7hzwWXya2/DXpvFNOD877653oMSERERkSiLciCbSHwBDP7ahhOgz8bZQ5DyUHpAPQdtO7vH0O9Y5shaeCD3FvJyZzANoL+dmk23kHefZbSGIiIiIhJD/iK63SWQXZ+PK76Z3fEdAEyuK2VJplm20ootp5nqKphcbmXyoSvR3b1p2sIs8kqPkvyc8XPZu0tZlDghuxIRERGR62SS2+12X+9BiIiIiIiM1bdwjqyIiIiI3AwUyIqIiIhITFIgKyIiIiIxSYGsiIiIiMQkBbIiIiIiEpMUyIqIiIhITJqgQNbOvvhKqotbjIURRERERESiLCYyss7GrVTH76Frgvdz8WATyckNxr8tJ31HQFNpw1DZNtsED0RERERERhXllb080lniClyW9kZ3kn2tFuy9WUzjJNuSu9j24ByezwBsXbTkzqe31gK2NpJ/2sYDvdncc72HLCIiInITi2hlr67NlbSfimPw0ACUW0mp6qYHK7muZVgat7K7ZMCoWDCXovo8LAA4aCuu5exsK1R1MwhQnk/Z6nTo3EN1zhUyTrxAdpJRzzY7n7In+6lJ7TDq+kg5UmEse9vX4lMeZ7b31LKzYfrjnHm9nfrHpo75wBzf0sBHDy41Alk/J9mW3KdAVkREROQ6i3hqwSCzKDpihaorxJ/IJ4UrOPvAUvgCZa5SMgpCtKu6wowTFZQdsULVh7T1jbCTpDxWuCooqosDrOS6KihzmUEsdvaldhB3xNhWVAe21GhNPzjJR5tu4c7EIEW2PqoX3MadUdmPiIiIiEQq8qkFsxOxcBm4HUsSuBjA1QckjdKu/EEjazpSABuOzhP0AORUUj208XafCum8fO50BB07aSrt4sSO+TwfGMj2t7P8p39ge2c20yLoWURERESiZ4LmyF4rgdMJxstJU+lRVt2dRu9Ci39RfzvLM3tIfXcpi4JlakVERETkmrrx7lrQ+R62Q2HUS5rCZAaw7bWHqGBnw/RZFB+4FPauj28xg9gX5wSUnGSbGcQOnzMrIiIiItdD1DOyXZsraa3y/NTB7vgOJteVsqJwhEaZPyKjoBZbaiU2rKSUY0wbMFkKHySlpJnW+Epa8VzslceKI5epzmmmuqrZqOh3cdkY2drI3wTQRfImc6btghTstVmc39JlTF/4acPQNIa8HfPZFZi1FREREZFrJqK7FoiIiIiIXG833tQCEREREZEwKJAVERERkZikQFZEREREYpICWRERERGJSQpkRURERCQmKZAVERERkZg0QYGsnX3xlVQXt+CcmB3cUJyNW6mOr2Rf5/UeybV16cBy/wUnOjdi3RhqgQoRERGR6Bq2IMJ7bUf5Ufb86zGWkJyNW9ldcju5rmWkjaejvhZqUjsYDNhsLNiQELKZ/yIPQHk+ZavTxzOSMMYX7eV3R2Auv9sClIW5etmlA8u598xKul+a6t2Y+Qs27sxiQ+dpXs6csNGKiIiIAEEWRCh65ln++gff55mnlzFlSvz1GpefqAWyHmbAGHekgiVhBFxdmytpPWWuGma2ZZTgdzyM58s1CmRPsi35S+7sXMSixDCbdG7E+tscul8KEsyPVCYiIiISRUGXqP2vL77kl796jWee/jkZ6X8zrLxrcyXtp+IYPDQA5VZSqrrpwUquaxmWxq3sLhkwKvotGeugrbiWs7OtUNVtZB09mc3OPVTnXDEDN6OebXY+ZU/2+2QoBwKWqGWEDKbZxyGCjCM0p+/YzeczLHBOymBGQQe27n6gn33xzUPL6Q6NC7uxvcA/+B0cyuT6j2+0jLDB7revwKzwpQPLufcfZtB47iXCSKh62fqoXmDBHm4Qi50Nj0PjuRCB6h0zePjLM1winanBa4iIiIhERdBAFuDrr//Ith01ZKT/Dc88/XP+x/+41a98kFkUHbnM7pwrxJ/Ih9QPcfZBWuELlBWagVqQfgerrpBxooLsvj1U53xI25PpZIcaRFIeK1x5ITKydvaZWdUVmWYQmroHi2sZlsa3sB0KEYiG0rnHzIJWDAXTrcUtWOrz/Ov12Th7CFJWGoHcEpcnEO/2qZTOkhNGEN7UmEFWt28QC12bzUC9Pt0MxmvZlzJydrhrs09gHO5zCsPxDy+Tl5vGtDDrXzqwk10lK3k5VIWEmcz84AjnQYGsiIiITKiQgewQd4jtsxOxcBm4HUsSuBjA1QeM9lV4+YNG1rRvbAMdpvOEkZ3MqaR6aOPtAFhSbge6jQxumPNZuz7ohoK5pCUBJJD2kzhsJZe9F6sd6mB3fAdgZFBHnZKQlMeKI5epzqmlFSu5Ls8Y7JyqAmimuqp5qHrcKN1ZrHFQZYwhWAZ36mO76H5s1Kc55PiWBvI3eX46SvJzt7A9jOkF5898wPK/2xW6guMMZx6awZ3hD0VEREQkIiED2VtvvZXlxcGnFtw4QlwQlbmMMpfnIq1mqqs+HP980wiyoc6eKyHLwptO4GXxzXSX1FJdMsaMc4B7XlxK74NtJNfehr02K8yM7CVOf/kQM4pGqPEf70HeBmVjRUREZMIFvf3WX/9gFq9WrL0+QWzne965rSNJmsJkBrDtDX27p7TVFZQdsYInWzwCizUODp2mqw/AQdevB6A8NfKLy/paaDKnKuSWd9M6dCuyROILYLDkPbrG3GkC2fUVFNXFAVdw+jynSweWY52+Meh0jlAufvUH8nJnhD2tYHR2dv0D5PxvhbEiIiIy8YZlZJ98YvG4br/lf6sq36/CR2iU+SMyCmqxpVZiw0pKOd6LmgBL4YOklDQHXOzl+ere5yt6M2uK30VbQHn+qFMBLIUvkNtdSWtqpREMFsylaLQpCQG38+rJqaQaK7knptBuXtyVnQQ8OZf21A52F0NRfR7Z9fm44r3PZyiz3Oc/19aWWonNfE7OgFuATa4rHecdDZx81Ap5r4wlxzyV+XlQ9h+XeOKx4cGqbePjnHm9nZcn5mYOIiIiIn6G3X5LbhK2sU4rMDn2U5x1llUBd0fw3ldWt90SERGRa0OB7M1maPGD8C7uCubSgeWUsYF6T1ZW944VERGR60CBrIiIiIjEpKAXe4mIiIiI3OgUyIqIiIhITFIgKyIiIiIxSYGsiIiIiMQkBbIiIiIiEpNunEC2r4Wa+Er2dfpv7tpcSfXQqljRcXxLA8nJDSw/6N/rxYNNJCcbZclbTkZxjyIiIiISbTdOIHtNOGkqbeCjB5fSvCaw7CT7Wi3Ye5fS25tG2aYuto1lvVcRERERuaaGLVEbjq7NlbSfimPw0ACUW0mp6qYHK7muZaThoK24Ftshs3J5PmWr08Hcfna2Faq6jWVdy/MpW53oV38wp5Jqv3YAl/n34kp6DjG0DK1nYdVLB5Zz7z/MoDFgpangLCyqXQrA8Q8Dy+bwfK338QNruvgogmMjIiIiItdGxBnZQWZRdMQKVVeIP5FPCldw9kHX5lpszKXIVUHZiblMrmqmptHhbVd1hRknKig7YoWqD2nrSyC73qwLpBypoMxV4RPEAoe6YaVZ51AH/945fDzRdZKPNt3CnRGseiUiIiIi10bkUwtmJ5pZ0duxJAEM4Oqzc6oKJv8kwyhLymBGAQx293vblT9IdtIY91Uwl4czgxdNfWwX3WFlY8PlpKm0ixM7siJavlVEREREro2IphZ8ezlpKj3KqrvT6F1oGb26iIiIiFw3Ub7YK5H4Ahj8tc24y0CfjbOHIOWh9NEaRuzSgeVYp28kGtdlHd9iBrEvzolCbyIiIiIykaKckU0guz4fV3wzu+M7AJhcV8qSENMC/CTlkVXeQWvQi72i5/iWBvI3eX46SvJzt7C9cxGL+tvM7V0kb+oyihek0FubFfUxiIiIiMj4TXK73e7rPQgRERERkbG6ye4jKyIiIiLfFgpkRURERCQmKZAVERERkZikQFZEREREYpICWRERERGJSQpkRURERCQm3VCBbNfmSqrjt9LWd71HIjHLVkfRM3V8fr3HISISNXbefOZZ3ozGyj8SBgfvr3uW9Ycd13sgEoZhgex7bUcndIddmyupLm4xVv6aIM7GrVTHV/r8m8jg2M6++EpqGsd/wl86XOkXhH1e8yxF61q5NO6ex8L4wCzy+TeRH56f10TWv7Gi2yysG+2R79zRyvqA5zqRz/fS4cpxfTCOtz3AxYNNLD84ke++b6fPa56lqMZ7rgW+V8fM1kZycoP3X2k7F82iiwebfMqaaOr3NvMr23Iy0r3f8C4drhz22XfpcKXfazBmvsfc53gbS5N7X4ttQd7/nuMerCwqbHVDnz8THzzZeXPYuRsYKBuB3HiOt/957Hu++h/vsb4W0WE+v2eevSaJj+G/54IFysa2cf3+6W9neXIDycltHPcrOMm2EJ8p3rLA7VHWudH4nV28P+oxzbCVvfa+tR/b//1Pnnl6GVOmxEd5dyNLW11B2upo9WYl17WMtGh1d43MTIA+B9ydYKeTdB65LqNIp+xfSrj7uuw7HHZ2/cMMGs/tIiOwKKOE3f8SZjcJuaz7l1yMD/FmktZX8EhCdEcq3w53ryjhkWeaed+RziMJdn5zEJ5aP/PgRNcAACAASURBVM73yJrgy2FPW7iI3oXmD7Y2kl9p54HaLKZxkn2tFuy9xuNtyV1se3AOzw97E8S+qQtKeerjSn5jy+WpDADPMY90tUcnTbXQ3LuUe3DSVHqUtQdnsGuhBWxdtOTOp7fWYhzvn7bxQG8293ia9rez9rnvUrbmm6g8t6DMz61LhyupDVohnaf+5Y2J2z/pPLUynaJ3WvlxRi5Tbc28ST6bVoxvdc28HfONY+zHwqLapSwyfzq+pSH81yJqEnhk/Rs8gp03n+kYoXyiJPDIqnyOrWvm8wXm54jnmEf6fra1kVx7G/bOFMi86ld08eCX8O5SejOMPzDSPZ8p/e0sz7zKit40ypK/HO+TGlnmS3Sf+wVvFWexq3MxL4ez4muYgi5R+19ffMkvf/Uazzz9czLS/2Z4hb4WalJPE1cOPVUDAKQcqWBJppEN3V0y4K3rWWq2cw/VOd3mxg5zCds4Mk68QDYt1KR2MAjebUme/XQQZ/YNRka39dRciurzsPSFaBdK5x6qc6741HPQVlyLbXawMXoD4a7NlbRiJaWqmx6AAmP/zs2VtFaZ1UtqqS7xlhlvXTsbpj/OmdfbqX9s6ggDM1y+4CDl/nvp63RAUgfcOxc6O7gMTMXB++sqedP8A27mwgrWLUgA842Y6Qk8bXUUfTqX3SvSIaANmSXmdoaVPbLyDfMXRgiOVtavO0+hT4D7ec2zdN5rtnO0sn5dM2cA30D40uFKfsO99Bw0yzxjsNVRtNP8a7/zWd4PaDeqh2Zwp/8AfZ5PYD8jHYdQjOOatLCfNw8aDT3HyO95Bzv+nudFAk+tr+ARfI9NJUUHfcoSho/P77Xw6w9mLsTLsZ/irJeZ+fbp0T8U+ttZntlDC2AszQxgLs+caHy4rcVC6nM9xhLRC1Kwez7oXoHXarOYhqdelvnLyQgIVh02dlH27tJxBlVGpuj9oefqOceHl3mOkfGL/15SDjYbZQn5bFqfy1QIeU6C8RpWdw7fz+c1lfTdkcibB+0BZek8tbKDou2tcEczPQsreMr3j56xvBZjcPGrP8DdSUwDYA7PD0U5c3hgTRcfjav3kd8Xlw5XssY8973HNfT7YsTzeKyfD+Yv+vXr6vj8X0qYcriZnoWlfsfctnEWhV9u4NP6xYz+6WphUW320OMHcm8x3wtARja7POPMSKIM36/vnDS90kPqu0t54MOGcR5vCDxG/ud4cL6vw7DPad/PB59zP9R57Hvev//Ms8YDzzHPKKHs02epPQwpB/t5an2J/3GdkHPcyVefQ+qDZrA74msRmeDn8Qh8jumw1yfUZ4qjlfUHYd6FZv/fQSP9nkvIpXRhJWtq7Oxekcj77/Tz1CrfYz62+IGMbHprgf72YUXTFi7iec/j+yzktZo/JGaxqxfgZBTO7XBMZdb34Wy0u3UH+PkvVvj927r9DffVq1/7V+r9tfuN//WKe+PTv3Y73G73f27yPg5Wr6HDuylkXbfb7Tiwxb3xf21xv9fr2dLvfu/pV9wbN9nMn23uhqH+fB972v5/7v8cevyKzz9ju6fNGwf6fcZn7s/3ccA4/3OT0U9DR7DnFNCnH5v7NetM99P7LwYpG+7UG6+4f9vf7/7tGy3u375R6z7l7nf/dm2t+5Tb7T71xgr3q+969tHv/u3aFe49x4197PmFUcftdrvdx2vdP3/DNvzxsH152nv6eMX9237PY/9zwFNveBvPfoOMYW2L+6Lb7b747ivun/vV8+wnWJ9h6n/b/fTTb7uDH9WAsXjGE+I4eNv4j8tzHIaOeX+L+1XzOYU+Dv3u364N7Mfr4ruv+LyGXiFfi/4W96s+z2VY+/633U9bZ7pf63CHzdn0jvuZpuHvPmfTO+6kpPfcnebPnf+81731uNvt7vvI/UzJR25nkPZDddxut9v9mXtr0jvud/rCH0ugUMfH/3wf3ubnPsfIeyxHPieDv5eM9p56gcd/qDzw/HK7x/5aHH/PnZS0d+jf1oDn1vnPnjLva+Jv/Md7xPeFz/HyN5b3he9nSuSfD6++2zL8Pe12u49XzXR/L+TnwEgc7ndKhh9zo9P33EkB53vSP3/mdrsDz/fI+H+ODxf6PRDks9Ln2Hvael7Pkc/jIJ+RfmUrgp8XYzzHjc8Uz3kceK5+5t7qKTOP7zABr0VEQp7HHqGPxfDXIvR5bBxj/88R37ahf8+Z5/y7wd6LY4sfhvR95H4m5OeG/zntFYXPkzBd3P/M2J/TKIJmZP0j3dBFKSuNzKP/jDs7++KbjcylKS6yGBtIIHulFVvOCbpWp5PWeYIerORmAp0njH3kVBoZJABu92kbbGpBOg/XfcjuX9twFubBsdMMFswiLQmcjacZZABbaiVDU1QKfJoWzOXhTBjbH4jpvHzu9FgaAAmk3fEpay7ks3todw76LiQwb2GCt879CRzrczD8u3UfSXcys7OOonWBf4Xa6eyE94f+QjT6fMpn3MEyo3ffm071p3aeykgHWwfvZ8412tg6eB+79y98gARvvnTmwnyzr0SSxvnV/diyMKaQx2E06RR6/hpPyGXdeuPh5ZD1E0i6w0H1umfpGy3DPST0a3Gp81NYWBo6Q52wmPpzi8PZSVjydqQNfYV3z4tLjcch50yd5KNNUL2pwef9dwvbx7H/qUmJnNlZSdGFgIy5w84x8ikNcTy95xfcveINMzMe6px00PWxgzMOT2bc4PsV4iOPmudIQgIpnPcpcdB3IcTgx/paZGTT22s+7m9neWYTTWZ2HIzj3/si5rzONpr9vl510lTaxYkd83k+MfxdDjPC++LzT+088mhJiPdKsPeFnd+E+kwZx+fD3QvzYZ2ZAQ8YRcZLp+lm7I5vOcqqu9PoDTyf+ttZ/tM/sL0z28iAm1MKmnuHT/+IjJ3OznQKV0Rn/tKlzk8543Cw5plm70afTGno83gEDoff724/YzzHh02RyWzjrqHzeA7P987heYypBclb8J9mE/haRGjk83iMRjmPScjnx+Y5NeWOcF/jdH68sJk1B/uDTJuJJH4Yha2N9Kie02M39bFdVB9YjnX6DBrPvTRiCBOukIHsrbfeyvLiEFMLQnLQVtxMT4H/V//jkplKCs2c6gQ+6IbyfJ/gNPh0gpEuZbHMm8XkktN09Tng1wNM/kmGTzAefF7ttb40ZuqCCnYD4AD66Yt07r9nDqh5UdMZv69VIpgHm5HPU+808znp8Gk/Ty30eeOF+Lo+2pO6M146TbdjP8XF+6kON5gd8ThE190r3mA35sVBO8OYsgGEei2u7UV+kZgSEGCNk2d+s3nnifCmgIwgaHsH/tM6wnfpcC1vkk/Zwk+prrGPb2y+EmeQtyDEp0xGEmV8yVf9cE8iDE3nuDuN3mFzD8co6u+LEJ8pfUT++ZCQzryETyEzOsHf8S0N5H+egr024Be5OfUm9d2lQ39MXPzESQvf0JLc4K23qYHqEHObr4dwpiaEz8H725thYQlPfVzHm7Zw/xgPwwjTBO55cArUDnIRhv6ACHwtbhjj/UwKYmrmvcz8GNIm+voMWxvJP/0D2zsXTcCc4/BdOrCcMjbQfS56v4GD3n7rr38wi1cr1o4xiPUxOxEL0LXXM391PNJ5uC6Ong/2cKoqjownzZMoaQqTGcC2d4xXVSblkVU+wNm973H2kJWsQuPssaTcDnTTHoW7D3jZ2TB9FsUHwglJRsj2mJm+Y52esdn5zUEHKUPpC0+wa+fNnUGOR0Iu6/6lhEcc581sYjqZmXYax3x1bAJp9/fTabPTeeFe7xsvYy6PdDbzfoSHrmeskXrCTGZGsqNhxyFynjF/XlPnk4HyunvFG2xamDDsuZ25EJjiDP1aTE1K5MzHduOXvaOV2oMBdRz7KZ4+iw2dYxt7y+/G+OwPXzXyOf3trH3Oc8HLHB5Yc5maEe6AYNxZYjlvjfW8yChh9/p8Zl5wGM89IYEURzO/GcvVvCHPyQTS7mdo7mDYHK3UHoSnVuVy94JSnrpQ5391cYSvBQC2LlYd/i53BfulbeujeoGFB8yyoWxisEDKHEN4nzc+grwvptyRwPvvjOWOKSN8pozz8yEU28axXQF98WCTGcRmBWT5TrLNDJx853hPW7iI3t6lQ/+a1xjzwH2PvW3jLKzTNxLeqZlIUkIkn7vBTc28Fw42R3jF/fAEiecPtdIF6TyyKp+enQFX84/jHL948EuqF9wWcF2D4fiHl8nLnWG+JsFfi8AxhHuOj/08HsG1/j03pvhhFEMZ7kVj/OPAGEO4dweybTTGe+nAcuO96dhPccD74/yZD5j5veimkYZlZJ98YjE/yp4fYXeeqQDNVFc1M7luLin4Z2TTnpxLe2rAxV59vhdZYXy973PRlJFF7aCnYC4Pe7KvSXmsOHKZanNfwNCFVoZuWuMrMeY0+2du0x6y0poTkN3NXEZR3VZ2ey7aAu+FaiMypysEvdgreu5eUULKM96vQ2curGBdhrH/Hy9sZs26Z3mTBCNLagbEfpPczTZPhejPfxK8nWqfr098s4pTM++lZ10dLKzwydyYF8Kse5Y3ffYVTqbA+OrQM47x3C3B/2Kg9595dug5McJxiITvmGcuzOeRTs/Xdv5jMJ6P9xhMXZDPI8/UUfQM+GYFQ74WGfk89U6l8dVhQj5lCxNoHMe4AaYt/D5lyV0kb+rC92KvkBKzWLGmgfzkBmAK23d4L5K558U0UpM9F47hvUDM83y/NwP4V85eAMLINvheiALGeef59uCp9fmsX/csRT5lI2eLQp+TUxeU8tS6SvN1MOqOfN55MlWeLG4CjzyaTtHOyojvdHHxYBPpQ38U+Ge2j29pIH+T+YPvMbW1mds9r19AufkH3q4zFyCMvOpInw9TF1RQduFZ79fWYWRrQ3+mRP75EDVDf4T1kJ7s+fLcOO5s6TKmx/zUO00m+NX2w9058yHgLKcdkDHq00ngkfUl9AV+ji9ICHgtjHLfi0uH3hedz/L+0GeHebFQiM/q0Hx/Z2BkGRc6jD/UPK9xQi6Fmc9Sva414ix9yPPYvONGsGN9fLTXYozneOjzONzfF76vxY3we24Efhf0YnyTsCaN3hen0PSKsb0ls4FVZrlxca7/a0FmA6v8Xqs7mPEQ8OUZLpE+Id9iRsMkt9s9wixYkRuRnQ3Tj/DjKM2vkQni2E9x1nvktO/iCd3W7Bq4xFvFWRzJC/MqZxm/zo1YHydqc/1kNDrHrzXbxlkU8jbdL0VjSoXx+p1dGd27u9xQK3uJhCed5a+fpXC8CyLIhLFtnIVVQey107kR63T9gr92LvFW8SwFsdeSzvFry5zGEbUg1nz9XmIDy6MYxIIysiIiIiISo5SRFREREZGYpEBWRERERGKSAlkRERERiUkKZEVEREQkJimQFREREZGYdOMEsn0t1MRXsi+SlXGCuHiwieUjrDokIiIiIrHtxglkRURERETGILL7yPa1UJN6mrhy6KkaACDlSAVLMsHZuJXdJQPeun7LvNrZF99Mj19ZIm3FtdgOBewjoN2G6Y9z5vUwboQcsEybwbsU58WDTazFQupzPcaybJ7l2PrbWf4KvGYuzWbUy/JZOs+73F64yxeKiIiIyMT5i8ibDtBzai5Frjxo3MrunD10uZaRVvgCZYVmlb4WalKb2fdQOksyoWtzMz0Fcymqz8M3DMyuryC7r4Wa1A7izIA4YolZ7OrNGhaI+mp57iorepfSixGg7rNl8fwI681fPNhEzffm09trAZw0lR5l211LeV7LuYiIiIhcN+MIZCFlpRmQptwOXMHZByQFZF2BOPN/izUOqjrYHd/B5LpSVhSGu3ZlOi+fOz2eofrJ25HGPebje15cajzuD1XbyUet39By+CjJz3m3lpVGbTgiIiIiEoFxBbLDOWgr9sm6mllWD0vhC5QVOoypBCW1VJdYyXUtIy26g5gA3qkJIiIiInJjiMLFXg7adnZDwSzSksxNsxOxAF17OxgcVj+B7PoKiuriGMrijsrOhumzKD5waUwja/nd5THV5/BVzgP0t7P2uW/MjRYeyIVVb50cW18iIiIiMqHGlZHtyak0LpjCSq7LmGaQvdKKLaeZ6qpmJtfNJQVvRrZrcyWtVd72k+tKyfYEv0l5ZJV30Orp0+9ir7GbtvD7lCV3kbypi7AyqolZrFjTQH5yAzCF7TtuGbpgbNrCLLaXHiU5ucvcMoXm3uyh6QkiIiIicu2N464FUbgwS0REREQkQrqPrIiIiIjEpMgysiIiIiIi15kysiIiIiISkxTIioiIiEhMUiArIiIiIjFJgayIiIiIxCQFsiIiIiISk761gayzcSvV8XvoGr1q2C4ebCI5ucH4t2WUlb5sbUN1lx90RnEUIiIiIgLjXNnr5nKSfc99l+beReGt6JWRTW+vEfyuneihiYiIiNyEIgtk+1qoST1NXDn0VA0AkGKu8uVs3MrukttJKe+mpwogjowTL5hL0TpoK67FdsjoZnJdKSsKEwBPuwFzB75tApa29SxdG2oMScaqY4MADNAaX0mrz/gAcOynOOtlZr59mpfDXZmsf5ATC25jScDm41sayN/k+SncpWtPsi25y1zeF/J2zGfXQovxg62N5J9eNh4vSMFem8W0MIcoIiIicjMZR0Z2gJ5Tcyly5UHjVnbn7KHLtQwjHOtmwFpKmQsjcN1rJ3t1Ol2ba7HNzqes3hOI1rIvxQg+m0oG/INNk7NxK63mfizY2RffTI01kRXz/Mfg3FxJ684WnPV5rHDlDQXUua5lpEX+JAkMOluSe4Bb2N65iEWJcM+LS+l90Sy0tZG85SS9L84ZsceLB7/kxI759HqCV4/+dpbX3oa9N5tpGNnc9DD6ExEREbkZjWtqQcrKPCNwTbkduIKzDzOQtZJlZlqz6yvIBsDOqSqAZqqrmof6iANISiQO6MmppBqrT/DpoOvXA3Cog93xHUNtJgcZw5hmoSYspv7c4jArz+H53jk839/O8lfgtYAM6cWDTaQ/9413w5qkUXucdtd3afnpUZJ/l+YXpF78xEnL4W/MYNnTX5jDFBEREbnJXPM5sr7TCbzSWeJKh849VOd00xpfSXtdKSsKzWLPdAJffdditKPob2ftc7C9cymLEjEysh+G0c6cP2tcENYFa7wBrd80AxEREREJKQp3LXDQtrMbCmaRNmIyMpH4AhgseS/0nQQyl1HmyicFGOzuBxKwzAaqPqQtmoGrYz/F02exoTManX2XuxIBnDTVXh5b04xsejtTyPt8kIvAtPss8FwXx6MxLBEREZFvuXFlZI2pAABWcl2jfcWfQHZ9Pq745qELsIYu6sL3Ai2zPzMDm7a6FOepWmypldjMUuOirpHHZil8kJSS5uAXe0VLYhYr1jSQn9wA3ML2HVPgd0aR/5SDoyQ/B2XvLuX5jMALxIzt08z+XtvRRHpyg1/Z8xlRHreIiIjIt8Akt9vtHnOrPiPwjJuI4FBEREREJAzf2gURREREROTbLbKMrIiIiIjIdaaMrIiIiIjEJAWyIiIiIhKTFMiKiIiISExSICsiIiIiMWmCAlk7++IrqS5uGdvSsSIiIiIiYRpHIGsEqzWNjuiNJmqO8dmkSXz2MXz16iQ+efWYT5mDLx6fxCeTJvHJpEK+uOBT9PFr5vbANiPwbfP4XlxB92OMZciFvXROKuSLC0adzoYb8RiKiIiI3NgmKCObzhJXBWX1xmpf18ej/OUdw7d+9Woiv1/Uz31uN/edL+T3d77GV2AEl/Mg0e3mPrebRLLCCDAdfPFPnjb9xPEzuj1tPv5X736OrefqPHM/QzK4Ncj4RERERCQ8ES1R27W5ktYq84eSWqpLgIK5FNXnQeNWdpcMGGXmNgtA5x6qd15h8qEBBrGSUt5NT5XP0rGde6jO6TY7tZLrWkba0B7tbJj+OGdeb6f+saljGuttMx/lO1jNn47x379czzR3gvHjhW7+zDr+++O1uLobYe8O7gLAwR9PwJ9PHMW19EnizbafTcrim739ZC4125PAD95eO/R4yqJH+b1nx/evJfN+z+P53MbRIKNL4NZU+JM1IUiZiIiIiIwkooxs2uoKylz5pACT60op88m+WgpfoMxVSkZBkIaHYMaJfFLoZsBaSm45DPQ4jCVvc66QcaKCMlcFueXdtI5rfu08fuhu5Ad3QPzSRm/geaGbbxZbuQ1wNRTyyT9ZifuVUXT1zDvcYk3ACFgT+dOif+M7Y9qng8tNnj4CfHyUq+Z+AbjjSTLda7kLuOsf3fzw/uFNRERERGRkEWVkI3c7liRwAXEpCdANg939ODnNIAPYUiuxear6BcLpvHzudNRGcbWhkP4zq7nv7Xl89erP+NNQyTE+m7SZvzzv5gfspbPJt9U8fjjCImhfvZrIQGo79wUGpRf20jnPRtz5tWZmV0RERESi4RoHsiMJnE4wAe6wcsv+LPpT27nvH+fhmUJAtjEFoX/eZuLOG5lcPu7mz0NTEkb21auT6D/xb8x8e55/wYW9dN75M2455jb6FBEREZGouSHuI2tJuR3opj3kHRDsbJg+i+IDl8a5p3n81a/gtmwz4Pz4XxnYv56/uh/i/7aQ7ywuZModYFzEtY7vLJrvk0U17oQQeAGYq6HQDGKfDMi4HuMzM4jV1AERERGR6BtHIJvOw3VxDJbUUu1zz9iuzZVUx9diOwQc6mB3OLfoylxGkW9f8ZVUb7ZHPrQR3PWP7TDPvC2W+ZX/XQB3PIl1USNnJk3ik0nGNAHvRV0hXNhL95PvwP6fme0m8ckk4+4EX72axVXg6jzvLbh0my0RERGR6Jnkdo8w8VNERERE5AZ1Q0wtEBEREREZKwWyIiIiIhKTFMiKiIiISExSICsiIiIiMUmBrIiIiIjEJAWyIiIiIhKTJiiQtbPP596yEiHHfoqL9+NdBuISbxUv5y3djlZERERkeCD7XtvRMJsaweqoix2MixkQ+/zb1zl6K2fjVm+bIMF01+ZrHWSfZFtyA8nJDSw/GOZeHfspzjrLqvrFTB3aOJUnVs7gpZd9g1sRERGRm9OwQHbvW/vZuOmfuXzZNY5u01niqqCsPg/LOHrxmFxXSpmrgrIjVnpyRg9mLYUvUOYqJaMgCjsfNydNpV3w7lJ6e5eya2E4R8TOhqyzrDr3EhmBRZm/YCPvcVRZWREREbnJ/UWwjf/1xZf88lev8czTPycj/W+GlXdtrqS1yvyhpJbqEqBgLkX1edC4ld0lA0aZuc0C0LmH6p1XmHxogEGspJR301MFKUcqWJJplud0m51ayXUtIy1wx5k/IqOgFtsHdshMh74WalI7GAQgjowTL5CdNMKz9dtHB7vjO7zt8O0r2BjsbJj+OGdeb6f+samErf8sLYensKI2/Ca2jY/D26eHB7EATGXW9z/gNxeAUVbQFREREfk2CzlH9uuv/8i2HTVs21HD11//0a8sbXUFZa58UvDJlpoB64jZ0EMw40Q+KXQzYC0ltxwGehxGQJpzhYwTFZS5Ksgt76Z11K/+7exL7SDuiNGmqA5sqXvoGqlJ5jKzf4wg21VBmcsMfpPyWOEy+jLG303rZvuIIwjHxU+ctKxJ4p5wGzj2s73uF/w4M3SVO2c+xJnfaXKBiIiI3NyCZmT9uKO5u9uxJIELiEtJgG4Y7O7HyWkGGcCWWonNU3W0aQGdJ+gByKmk2qf/8fDLNAPM9i1N5+Vzp8Pu6+LBJtKf+8bTM8mbuih7dynPB0+zel04y7+X5FA/QpXzZz5g5t+NISssIiIi8i0UMpC99dZbWV4cfGrBxAg2nSAwI9qP6xBM/kkicIKwphOEydm4ldYqT38O2oprvUF1BKYtXETvfe0sz7zKit7ssDOyl353lodn3jFCDTu/qfsFP35pHIMTERER+RYIOrXgr38wi1cr1l6zINaScjvQTfsod0BwNn5ID3HMmJcASVOYzAC2veP/+t/LyBjT+R62Q4FldjZMn0XxgTF8pd9/dWzTCsJw6cBOdpXkhJg/KyIiInLzGJaRffKJxfwoe34YTdN5uO5Ddgdc7OX0+3reuKBqcl0pK1JG6CpzGUV1W719AZTnU7baeDg4tN03A5vHiiOXqc5pprqq2ag42hgKjauj0p6cS3tqwMVehQ+SUtJMa3wlrQVzySjvHldGFuD4h5cpezB7TG2m/u8fwcsfcOkx39tumRz7KfuHGTSeSx/nyERERERi3yS32x3VWbBi6h/7tALDJd4qzuLsytO87HfBl50N03cyo30XT+huBSIiIiJaojb6zMUPMntIfXesQSzAVJ7YsIEzOwNX9FIQKyIiIuJLGVkRERERiUnKyIqIiIhITFIgKyIiIiIxSYGsiIiIiMQkBbIiIiIiEpMmKJC1sy++kuriFpwTs4OYc+nA8oDFFOxsmL5x3PeqFREREblZDQtk32s7GmZTI1itGWU1rvExA+LAf5tHWM2rcw/V8ZXs6/Ru6toczaDavL1WcgPLD4bX46UDy7n3zErqH/Nd4iCd5a+fpXBjNFcmExEREbl5DFvZa+9b+7H93//kmaeXMWVKfITdprPEFY3Vpzz92NkX38yAz+pcIWUuI7e8ktadLTjr87D0tdBeBSlH8rCMezxOmkq74N2l9Ia7RmznRu49s5Lul4Yfj6mPrWT59CPYXkrXkrMiIiIiYzQskAX4ry++5Je/eo1nnv45Gel/M6y8y3cJ2IAlamncyu6SAaPM3GYBI1O68wqTDw0wiJWU8m56qiDlSAVLMs3ynG6zUyu5rmWkjTZ6vzbe5Ws9S9D+e2cesz/oYLBgLot8V8ly7Kc462Vmvh24etYo+s/ScngKK2rDbWBnw+OMsKTsHcx46CynHZChhQ5ERERExiTkHNmvv/4j23bUsG1HDV9//Ue/srTVFZS58kkBJteVUuaqoMwMWC2FL1DmKiWjIEinh2DGiXxS6GbAxSW/jgAADLxJREFUWkpuOQz0OKCvhZqcK2ScqKDMVUFueTeto00F6GuhJqeblCOeNgPYUvfQBZCUR1Y59OzcamRjV0YjGwsXP3HSsiYp7NW6Lh3Yya6SnBGyrVOZ9f0POHshCoMTERERucmMfrFXVNf9uh1LkvEoLsVIQQ529+M8dppBBrClGnNgh7K9IzDaWJltZlTTHrICV3D2+fx8aIDBgrk8HJh1TVhM/bnws7EXDzaRnNxA+nPfwKYukpMb2BbGVVrnz3zA8r8baYrFJU5/+RAz7ghvHCIiIiLiFXRqAcCtt97K8uLgUwsmRpjTCcKVmWpkfn+SMe5s7LSFi+i9r53lmVdZ0ZsdZkbWDFKLRqji+IAj/IhqTSsQERERGbOgGdm//sEsXq1Ye82CWEvK7UA37WO4A4KnzSnz7gRdH3RDwSzSksJo7NhP8fRZbOgcveqQ/qtjmlYQDtvulyHvIaaOXlVEREREAgzLyD75xGJ+lD0/jKbpPFz3IbsDLvZy+l4IRge74zuYXFfKipQRuspcRlHdVm9fAOX5lK0e4Wt5T5ucSqoBI6MbnbmwwRz/8DJlD2aPocVU5udB2X9c4onHgoSqnRsp/HIDn76kMFZEREQkEpPcbndUZ8F+K/WPdVqBybGf4qyzrDr3kv8FX6G2i4iIiEjYtETtiMzFDzJ7SH13jEEsQMJiql8/y/bAFb0UxIqIiIiMmzKyIiIiIhKTlJEVERERkZikQFZEREREYpICWRERERGJSQpkRURERCQmKZAVERERkZg0LJB9r+3otR9F5x6q47fS1he9Li8dWI51+iys02dR7Hf7q4DyjfbROzNXArNO34gtsKxz49B+wupLRERERKJiWCC79639bNz0z1y+7Loe44mqh19vp/vcaeqHraxlZ9c/zKDx3Gm6Xxph9TCPhMXUnztNY8m/BtwTFsh8ie5zp+l++xdRG7eIiIiIjC7o1IL/+uJLfvmr17DZ/zNoo7biSmoaHT5bHH7bujZXUh1v/ttsH1bPU+bfh6mvhZr4SqqLW3AObbSzIURmNWIPzeDOMTa5c+ZD0du/iIiIiIxLyDmyX3/9R7btqGHbjhq+/vqPYXUWl5KAs3ErrafmUuSqoMyVT0pVs0+AW4ttdj5lrgrKTsyFklr2dfr24KBtXQeDBXMpqs/DMp5nNhLHGc5E0Gzq92bw72cuRH04IiIiIjJ2fzFqjSDrfllmg627HzrfozoHcl2puA7FEb/eQdfOATjUwe74jqH6kwGwc6oKoJnqquahsrihRwPYUmsBK7muwCA2nZfPnR7TEwvFtnEWhV9u4NP6xQROOBjV/9/eHcY0fedxHH/vmcsetKbcWuBcVyd3N0h7oasPhomZJsjpNrqF29Q9uDNcALMszgd4jG0JIbdYO32gxhlbc8TwYHrnDMI2CHLxFhLZA2pJauiSedp1poPOESG5S/aMe/D/t9QOBAuug3xeCbH9/36/L7//s09+/vj9fO+Q4Aiujac5MnKW3Y4VmZKIiIiIFGDBIPv444/T1PhnvNW//0mb3WWFBMS+uIezHeIRgPXYyzC2A7TX09aav/d0AgBLuIX9DXkJMAJgxdkOyUCCeAQ8vmW81QN437lJYvIijY0XCT5smI0cwfWvOhK3l7CvVkREREQeqXm3FvzutxX8reO9eUMsgN25HuLDjMQr2PbCepKnh5n2l2DHgb0SCAzPcwJBKTY/zDRfIbbAZGxv7Mbrh2Rdd16fFd4j69jEprxH0SNG/bufNOFqvMjdyYs05p1ScPebW2zb9OuVmYOIiIiILMtPVmTf2P0aO2q3P3hUWQmW3gQz7aXYfaU4e/tI+o0mT2sL6XiIqLszGwKdgx3s8Tmo7apnytbHgK2TAQCseG+8TW22cG6fbpj6E54VeU0RERERWWsem52dnWcX7Op395Mm2jg8z9FbYKzwDvKH2+/gfYia0SMVnNo0Mn/NzLaDpRznJSIiIiLLtqZv9vr3X2sWuBChmqYPb9HwkBciNIT/wlv5ITZzIcLrf1+xeYuIiIjI4tbsiqyIiIiIrG1rekVWRERERNYuBVkRERERWZUUZEVERERkVVKQFREREZFVSUFWRERERFalX0aQjXQTtJ2Y5zawPN/1c8bWyYXIzzKrPOOcLD9Pefl5ysuHuF6MKYiIiIhI1k9u9pL5jHOy/Gs2RPaSKi32XEREREQECgyyQ42d3Hqxhf0NDvPJJEONoeyz2LFOBgJmU3s9ba3V9/WL9hrfLOHcGqbv+jnjHmXGv5l9Xbuw540BsAIwxgVbH8mcp8Z1t8Z462AHe3xGS+xYJwPxTD2MCw5q3mXTP2/yrm/x9/3+8tfc+KiGAwqxIiIiIr8YK7oia3U6SF86YYTGqV3YzbB5xlVqBtwQ0cp62rqqzcAa4oKzgz3ZCpMMvZ8bYjHGYNYzQ66hmj1Tc9fBxo51MvB+P54uL8/4R4l+MQY+4/eMBMA5aIbYAtz55kfcT9+iqfwq/QCHPKQOVhVYTURERERWQkFB1l4J0cQERK4QrIOdU26meq3YPpgkdnoaekc5ZxvN9rcAMEY8ANBHMNCXbbNmP00TdYcAFzunMqHTGGMJe+cNoelLJzjXPD33wA/goPZNF9G6G8Raq7F/eZMZXNTkrrw6XqPr9mtLfNs0334Fwa9gLLWXs6TpabnKyWgVB7xLLCEiIiIiK66wIOuyQgJiX9zD2Q7xCMB67GWQhrztBBkTwALbCSIAVpztkAwkiEfAs9h/+Ue6Odc8jdPcQmBsHzDbfG6c9BGPTJL+fBpLeDeeQl7UeFueehbattbwpPl9y851vPdtGryFrvGKiIiIyHIVdGqB3bke4sOMxCvY9sJ6kqeHmfaXYMeBvRIIDM9zAkEpNj/MNF8htkBd2xu78fohWddt9jHHJIwQHPt4lJn7RlixlZHdPjCnmm1hK8m6ENFeFzX5wXnyIo0bKzi8xNMPNjy9juDwuPktzbWBH3E/pRArIiIiUkyFHb9VVoKld5qZylLsPjfO3ulswPS0tuD1TxN1dxK0GT/GcVkOarvqcZJgwJZpyz9yK7dPNzEc1H6wGUugj6CtkwFcODNdfTvmfo/7B54JW3MLYX++wtjS0O5exmqs4clXXqWPmHn01lX6d27XtgIRERGRIntsdnZ2ttiTeCQi3QTr7hknGZQVezIiIiIistLW3jmymeO7MsdxKcSKiIiIrElrd0VWRERERNa0X8YVtSIiIiIiD0lBVkRERERWJQVZEREREVmVFGRFREREZFVSkBURERGRVWmNBtk0PS3nzQsMznMyulBbDz0Tcy3fX+7Jjik/Pr7EeiIiIiJSDGszyEZj9O/cTiq1l9SnJQRfHuK62XT9+NW5toidfl+mbZwLA3bGUntJpTy0HY3NBdYH1BMRERGR4ijoQoTYsU4G4pvZ17ULO2QvIbAOdrDHZ7YHzM7t9bS1Vs+NC8zVsYRb2N/gmBvf7iIZSNzfBsAYhze+zn8+HKHrj79afILeWs5mrpD1ltFG5h7cca4dLWF/ym58nfgf/fyAOwrPeas4EMoUqGLLoRjXFq0nIiIiIsVS0Iqs5wUX9N4kZua52MejzPg3s80H6UsnjJA71UHbVD3OQB9nLk0a41o7aJsyfwZdzDT/g6GcTJiMl7BvqoN9YSszzVeILfv1gOh3BF96gg0AEzPcMD9/f7mH8tATnDo036Bxrh1dx4bSReqJiIiISNEUdkWtbwdef4hbX05S2zBBPACWsBc7kwx9Pg29o5yzjWa7WzIfstfHZljvK+t801zhbXibtobclmrevX3z4ec5MULTy//lVKSWJ3Me37ncQ/03vyEVquL68SR37huUpqclxo2PtnMgP8guUE9EREREfn6FBVkceF60Ev08Str5A0lc7GxwAMbKa+52gjljXHCPMpNpi3QTrLu3nLk/2MQITb4k7k/38momkJZacH8Wo/5ZD6mDVUCab78CtmYGpelpucpbz3pIvWJfvJ6IiIiIFE3Bf+xlb9iKs3eUc3UJLOEdeABwYK8EAsP3bRnIZXGVApMMnU48xG8b4/DGCho/ubvE/uOcNEPnAW/u8yq2HIK2rVXG12iMtz4rYYvZ5/pxM8QerFpiPREREREplgJXZAGqqWzvIxmw8szzjuxTT2sL6XiIqLuTzB/9Owc72OOrZlt4mHPNIYLN4AxvxtJbwHaBJbh+PEYQ4OXzxr/Aro+2c/YVO88d9HCt/DzlAKzjVORVngOIDlF/FCBG+VFzd+5LTsZCNdx5QD0RERERKY7HZmdnZwsbOslQY4ho5XzbCEREREREHq3Cj98KsMBeWBERERGRR28ZK7IiIiIiIsXzf7VbuyCkEBNLAAAAAElFTkSuQmCC;" parent="1" vertex="1">
          <mxGeometry x="1830" y="290" width="286.51" height="120" as="geometry" />
        </mxCell>
      </root>
    </mxGraphModel>
  </diagram>
</mxfile>
